<svg width="21" height="20" viewBox="0 0 18.5 32" fill="none" xmlns="http://www.w3.org/2000/svg"><g clip-path="url(#clip0_47_13130)"><path d="M9.23186 11.6511C4.1335 11.6511 0 15.6932 0 20.7962C0 27.847 9.25838 31.5884 9.23186 31.5783C9.20661 31.5884 18.4637 27.847 18.4637 20.7962C18.4637 15.6969 14.3302 11.6511 9.23186 11.6511ZM9.23186 24.4985C8.54053 24.498 7.86486 24.2924 7.2903 23.9079C6.71573 23.5233 6.26807 22.977 6.00391 22.338C5.73975 21.6991 5.67096 20.9961 5.80623 20.318C5.9415 19.6399 6.27476 19.0171 6.76388 18.5285C7.25299 18.0398 7.87599 17.7072 8.55411 17.5726C9.23223 17.438 9.93502 17.5076 10.5736 17.7725C11.2122 18.0374 11.7579 18.4857 12.1418 19.0608C12.5256 19.6359 12.7304 20.3119 12.7301 21.0034C12.731 21.4632 12.6411 21.9187 12.4656 22.3437C12.2901 22.7687 12.0325 23.1549 11.7075 23.4802C11.3825 23.8055 10.9966 24.0634 10.5718 24.2392C10.1469 24.415 9.69161 24.5053 9.23186 24.5048V24.4985Z" fill="#FF6F0F"></path><path d="M11.3103 0C9.15573 0 7.6554 1.50565 7.41923 3.28415C4.54738 2.4909 2.29688 4.67359 2.29688 7.07354C2.29688 8.9114 3.55978 10.3956 5.24324 10.8781C6.60087 11.2659 9.04586 10.9766 9.04586 10.9766C9.03323 10.383 9.58007 9.73118 10.4237 9.13751C12.8232 7.44996 14.6999 6.65419 14.9891 4.35276C15.2922 1.94523 13.5052 0 11.3103 0Z" fill="#00A05B"></path></g><defs><clipPath id="clip0_47_13130"><rect width="64.1053" height="36" fill="white"></rect></clipPath></defs></svg>